<mxfile host="app.diagrams.net" modified="2023-05-01T19:53:09.181Z" agent="Mozilla/5.0 (Windows NT 10.0; Win64; x64) AppleWebKit/537.36 (KHTML, like Gecko) Chrome/112.0.0.0 Safari/537.36" etag="wUxXqcqidJzvBxY10BQ1" version="21.1.7" type="device">
  <diagram name="Page-1" id="1GWtCZ77BIhR692JPM85">
    <mxGraphModel dx="1354" dy="695" grid="1" gridSize="10" guides="1" tooltips="1" connect="1" arrows="1" fold="1" page="1" pageScale="1" pageWidth="850" pageHeight="1100" math="0" shadow="0">
      <root>
        <mxCell id="0" />
        <mxCell id="1" parent="0" />
        <mxCell id="8L8VJX9xK1e9dgMS8Qbl-1" value="&lt;b&gt;Output Analysis&amp;nbsp;&lt;/b&gt;" style="text;html=1;align=center;verticalAlign=middle;resizable=0;points=[];autosize=1;strokeColor=none;fillColor=none;" vertex="1" parent="1">
          <mxGeometry x="845" y="40" width="120" height="30" as="geometry" />
        </mxCell>
        <mxCell id="8L8VJX9xK1e9dgMS8Qbl-2" value="" style="endArrow=none;dashed=1;html=1;rounded=0;" edge="1" parent="1">
          <mxGeometry width="50" height="50" relative="1" as="geometry">
            <mxPoint x="200" y="442" as="sourcePoint" />
            <mxPoint x="200" y="40" as="targetPoint" />
          </mxGeometry>
        </mxCell>
        <mxCell id="8L8VJX9xK1e9dgMS8Qbl-3" value="&lt;b&gt;Data Source&lt;/b&gt;" style="text;html=1;align=center;verticalAlign=middle;resizable=0;points=[];autosize=1;strokeColor=none;fillColor=none;" vertex="1" parent="1">
          <mxGeometry x="35" y="40" width="90" height="30" as="geometry" />
        </mxCell>
        <mxCell id="8L8VJX9xK1e9dgMS8Qbl-4" value="&lt;b&gt;Data Ingestion&amp;nbsp;&lt;/b&gt;" style="text;html=1;align=center;verticalAlign=middle;resizable=0;points=[];autosize=1;strokeColor=none;fillColor=none;" vertex="1" parent="1">
          <mxGeometry x="245" y="40" width="110" height="30" as="geometry" />
        </mxCell>
        <mxCell id="8L8VJX9xK1e9dgMS8Qbl-5" value="" style="endArrow=none;dashed=1;html=1;rounded=0;" edge="1" parent="1">
          <mxGeometry width="50" height="50" relative="1" as="geometry">
            <mxPoint x="400" y="442" as="sourcePoint" />
            <mxPoint x="400" y="40" as="targetPoint" />
          </mxGeometry>
        </mxCell>
        <mxCell id="8L8VJX9xK1e9dgMS8Qbl-6" value="&lt;b&gt;Data Processing&lt;/b&gt;" style="text;html=1;align=center;verticalAlign=middle;resizable=0;points=[];autosize=1;strokeColor=none;fillColor=none;" vertex="1" parent="1">
          <mxGeometry x="420" y="40" width="120" height="30" as="geometry" />
        </mxCell>
        <mxCell id="8L8VJX9xK1e9dgMS8Qbl-7" value="" style="endArrow=none;dashed=1;html=1;rounded=0;" edge="1" parent="1">
          <mxGeometry width="50" height="50" relative="1" as="geometry">
            <mxPoint x="600" y="442" as="sourcePoint" />
            <mxPoint x="600" y="40" as="targetPoint" />
          </mxGeometry>
        </mxCell>
        <mxCell id="8L8VJX9xK1e9dgMS8Qbl-8" value="&lt;b&gt;Data Streaming&amp;nbsp;&lt;/b&gt;" style="text;html=1;align=center;verticalAlign=middle;resizable=0;points=[];autosize=1;strokeColor=none;fillColor=none;" vertex="1" parent="1">
          <mxGeometry x="630" y="40" width="110" height="30" as="geometry" />
        </mxCell>
        <mxCell id="8L8VJX9xK1e9dgMS8Qbl-9" value="" style="endArrow=none;dashed=1;html=1;rounded=0;" edge="1" parent="1">
          <mxGeometry width="50" height="50" relative="1" as="geometry">
            <mxPoint x="800" y="440" as="sourcePoint" />
            <mxPoint x="800" y="40" as="targetPoint" />
          </mxGeometry>
        </mxCell>
        <mxCell id="8L8VJX9xK1e9dgMS8Qbl-18" style="edgeStyle=orthogonalEdgeStyle;rounded=0;orthogonalLoop=1;jettySize=auto;html=1;entryX=0.255;entryY=1.17;entryDx=0;entryDy=0;entryPerimeter=0;" edge="1" parent="1" source="8L8VJX9xK1e9dgMS8Qbl-10" target="8L8VJX9xK1e9dgMS8Qbl-13">
          <mxGeometry relative="1" as="geometry">
            <mxPoint x="160" y="440" as="targetPoint" />
            <Array as="points">
              <mxPoint x="50" y="340" />
              <mxPoint x="252" y="340" />
            </Array>
          </mxGeometry>
        </mxCell>
        <mxCell id="8L8VJX9xK1e9dgMS8Qbl-10" value="" style="shape=image;html=1;verticalAlign=top;verticalLabelPosition=bottom;labelBackgroundColor=#ffffff;imageAspect=0;aspect=fixed;image=https://cdn2.iconfinder.com/data/icons/crystalproject/128x128/filesystems/socket.png" vertex="1" parent="1">
          <mxGeometry x="30" y="130" width="63" height="63" as="geometry" />
        </mxCell>
        <mxCell id="8L8VJX9xK1e9dgMS8Qbl-11" value="&lt;div style=&quot;line-height: 90%; margin-top: 5pt; margin-left: 0.75in; text-indent: -0.25in; text-align: left; unicode-bidi: embed; word-break: normal; font-size: 13px;&quot; class=&quot;O1&quot;&gt;&lt;span style=&quot;font-size: 13px;&quot;&gt;&lt;/span&gt;&lt;span style=&quot;font-size: 13px; font-family: Calibri;&quot;&gt;&lt;a href=&quot;https://www.blockchain.com/explorer/api/api_websocket&quot; style=&quot;font-size: 13px;&quot;&gt;https://www.blockchain.com/explorer/api/api_websocket&lt;/a&gt;&lt;/span&gt;&lt;/div&gt;" style="text;html=1;align=center;verticalAlign=middle;resizable=0;points=[];autosize=1;strokeColor=none;fillColor=none;fontSize=13;fontStyle=1;rotation=90;" vertex="1" parent="1">
          <mxGeometry x="-173.82999999999998" y="190.5" width="390" height="30" as="geometry" />
        </mxCell>
        <mxCell id="8L8VJX9xK1e9dgMS8Qbl-19" style="edgeStyle=orthogonalEdgeStyle;rounded=0;orthogonalLoop=1;jettySize=auto;html=1;entryX=0.25;entryY=1;entryDx=0;entryDy=0;" edge="1" parent="1" source="8L8VJX9xK1e9dgMS8Qbl-13" target="8L8VJX9xK1e9dgMS8Qbl-17">
          <mxGeometry relative="1" as="geometry">
            <mxPoint x="285.58500000000004" y="340" as="targetPoint" />
            <Array as="points">
              <mxPoint x="290" y="340" />
              <mxPoint x="465" y="340" />
            </Array>
          </mxGeometry>
        </mxCell>
        <mxCell id="8L8VJX9xK1e9dgMS8Qbl-13" value="" style="shape=image;verticalLabelPosition=bottom;labelBackgroundColor=default;verticalAlign=top;aspect=fixed;imageAspect=0;image=data:image/png,iVBORw0KGgoAAAANSUhEUgAAATYAAACjCAMAAAA3vsLfAAAAhFBMVEX///8AAADS0tIqKirAwMB6enrk5OTv7++GhobT09ONjY1dXV329vb7+/vp6emfn5/c3NzZ2dmysrJycnKTk5O6uro2NjZUVFSjo6PHx8esrKwwMDDm5uZiYmKZmZlsbGxQUFBDQ0MUFBRJSUkXFxcfHx+AgIAMDAx3d3ciIiI1NTU9PT04l3A4AAAKrklEQVR4nO1d6WKyOhAt1oq2YHHBpSpqbbX9+v7vd+vCzCSZYMAFepnzz8gSTpLJbEkeHgQCgUAgEAgEAoFAIBAIBAKBQCAQEISB34mCoOxq/CkE8dfIO2A8jMquzF9BkHx6BKtp2RX6E2i+exoWMlbPYquTtkej7FpVHQOONc+TgZqJL5416W+ZmNhY83Z+2XWrLrpW1n7nhbIrV128UJ7Gy+U/GaYOiAhJk73SEUZLQmPZ1asqnoCiEUiyPvLWKrNu1UX4mBL0GGJpDLS9lle1KgPHqCLGYJyuy6pYtdHn+ekAmyXVq+J4hulALZ+l5aK6cYAZoamWr9LyXjn1qjiANk1DE9oy0U7p6avlP6KBZAEM0oFSjBZXSfWqOBrAj+KWBDbfy6pYteGDW3dJSue7tHRbWs2qjTF0twTKghEUiquSRxMY8pYnHW0Kfc37ZO4Iu/HrcJj0WyHzZ21AI1aDSSMebkjBxLi81wYr9vupxn4l0t0MPOrhq/mLesG4vmrdwk6bLtkS85J2KXWuAIKZScYRiXph+MJdtKlrQLVlYW2gXffDX/ZTV95QTcsafkvuoj1q6zkPGfmmGakZcUFvWEqlq4DmSGVioPvZsuKCdbb3m9jjZs9mphZNExkPm3FC54d6x1NPhlaT+ctHjh47x6KIdNBaJ8SdOhCn+6Nke8FCnCSe71bHCiKDNlA+ZgFX+nOvKlYRGbRBv1JGMHrr5neqYhVhp60Hgk0tB7P+7rZp0GvEcTV8MHbawN5fquXDtFzX8lJMXo/gppnC8N9Os/5BS2olx1ckZfV4O23TlB5Ns52co+3j9L9uqF2AENrqSBs0aVluLIfepk2Zr+doS0fx09Uq6RPTuBq02fU26G2a/Qn5q7ZBeHXaQmrOlE9ba0jqs+xrXg1wkmh5qXCHTd+9Om1tj6Bs2qZjT0O7q1wA5YoP7i0tfbelilybNl+pZLm0RRuPgeI4QguUqBroqFvZHn1t2qChvO9kOj0oIGXRxri6j10IHBsBNeSBt9YHlL3Znn1t2qD50HtQEm2sq/uI0/z4ppa2DwqS/0yKrA7ea9OWvpDI2FJoC1deBvYBv6npDF8tB4owtFvyt6KNOBRKoW2dxdpvf/MzAlsAu5FzZdpgRiANVQZt1gBBHmRkPOSkLWxFUZQR0rkCbaHfi6ILMwreDArsYOM0eyQZL+BoC1oAeqnfH6R5PIP4SF16mX+6bQ4uhW0Xbmdp67aUe1O0hqkkH207amVyxN9ULcjzNk/t7eLTYzHwLUGYzAAMQ1uILyC5Ei11wdzHIbMfSFLoQVj1tileQ5qmqWqnh7XGfebuc1CH6OuxYcIGI85mvQdlmQciq6+xtK051trGc0dzpK2dkzaytAdZ65qT3xdZgtFxZi3SHgHoPKqP/zhpIi1jUp2deZtJG+o7uFSk+6g/9/ghBWmb4xWonLNtPipCGx0X6nKXgNoNu2cc928KcTMzI+kcbfhOlOo9jwcEGfPR5mMjYAe06PSL/LT5qOUbi4RCkhiizoKN9snmH22n5+cjnTYcjJinqXR6inVawVy0BWv4H6d4a3AcLnamjdTjxfiTdHQjf/d3Du913aZwjTasPfotA8scRJCLNhRh6M3KykbLSxsxNLvmv+hDvSRQoNKG8oU411XjbrTZbIwUqANt834cg8K0aMZxfHRvabTh49B1qmoMn+vNZm20lTNtKL+WzL8keyHOT1cKhTZUCzZ4BdEVvE3/2H7R67dJ2x5BWkK0HpU2XOhJ3At0D4VB40B20NC2CHClLcBbWN8sNtsFqX+UNpRhGzLCyRxDPjSgjgKswFkrASU/UYyI8PxH/KktxV9WgDZWQ8ZRako+ZxDacKTMCGuks6keYlzTmoM2tHqodwE7m/YltBe60kYGPPs/itELEtiQNh+kyT/aSqha6xKUGH6utGGV6ewfQimRDUcQuepKG4bUedqwH1yBtu3DOn2aEo7AtjPXSaMN40ZbD7+I6u6k3xoJZWTEVbK3fUGveleiwNA23+a9OCm50TYBPVQdiwPmphQQsbyBbLsgfc20mlQJBi/h7A2g2o02WzPDpMPEiZCEa82k6C64wkyaYqdJMNAXGM0RCclH20rVxMEY+sdVELqis96G6vTt9bYUugRL22bEGR1AUj7atBaA+Brrq4FRWsRKYJJvieJ0BSshxYc2UFKDgJcDxWjTOgE4CtjwGgjXO9ik817P0a1syLYV/z/X34vSpvEDtLGiCFTh23pAQvCAzHJ5QEAjV53B1+xtaCEo0w7Qxqb3wN3u/ja03/SZTPW3DYm/TUnEn1nDyilAb0NRqXifU9m25loApJKj3gZyipohZ2QbTOUFvbu0T9m8u5G2euG3gmdc8GgloM+IfhPY01wSCeiprlYCNDZNp4MF2oaNsAfYCe60abGEJCOW8LOfFtg4l3MsAZ5K1SpobK7fAguutKEGTx8HehujnuIdOWjTI1c/g/Z2YQnsXRy5CuDBhGmYyJhcc8zMcTblcXog4g06B1NT1Olz0HbfOCkauTiyseFMgY2d3t1xBOKaLFeHsW5uGkn6TR7a7huVx0ACDhf0QejfREJN7rThxmoo3pAbY74u4AE5IjNzZp8DkpGQBHDNAQFhtTI/2vtWeaPqmDttZJpD8YbdVsu8pvln+WgjcR4G+/HHZRwNimUcobRKjCt+xxXttYogzUEbuRHEG3GRLUjbqFlB+WhzyW/T5oLhwejzaeTRNb8NZSmINxr2XaQxu1jN78xDG7og0HQnn7h7PhmSraEqrPPSdtdsSviAb2Ba7czrp+3S6N65aPOBDrDY1GXtny/b7UvxyBXgjrm7mDcDZnDmAt8CtBGpCLNzxtLr4rTdM1Mc5QyYwdbY76MSlXemjUh6EG+WbdN/zZxLaNsPdTI0brkuAR1SUFGb9ggU56QNp5kfmOMtEnwE7y5G2x73WQUDEuET2oaGmBH9nB4QpA2lB8Zi2MMNdkGBjCMd+ddcnV2qxtDGaZ9dQ0h4u2ZexxGpN/Zf9Ew3zVyTjV8kUUvHDVb4pbMa1TNR5aApCWv1iw5bQ6Q/IDvJdJMT24nWG1UyFB/BUD2DZDd5KJZNqeEG60k7jSNaXGFDeVPvGUTSKOkqF2KMsGGUPPhpGZXHAbyCvjmMSYC+H1rvzofyVy/3mnHcvO1KaL8Rx/H0mjuX5F4rj5tBy1r5HDszrNNS2Zkhxz4gKChqvQ+I264zs5PsidZYVt9dZ5rosZQ9jlyh76i1lB21zuPC/duyg1f/W7jtFmh1IlyQo/qX4bo3JeuVo16GWsG37oSqGaAhG+ba1JO1PPvuvpqX1HXf3Yt2eX6p7S7PJFvLG7x1psqe4mb6dm9L9hQv7qP662B2sG/gxPrB3LHfwT5Jkv68rtsU78Gel4BhBTkvgQWezkHVDTmd4wzkLJhCkJOHCkHOuSoEOVWtEOQMv0KQEyMLAaKr6jouOZ80G3IabiGQs5eJ4obpBnL2Mg856bsQ5Fz5YlC8lOPl8h/9XePT5s4gK5LHr/IU7GFfQGQuthEgvmy0iYWQCUsEVFyUZ/AkrBVC810nbVHnSIEzgkTJo15JV3NEEH+d3B7jYX3T1YogDPxOFMjoFAgEAoFAIBAIBAKBQCAQCAQCgaB++A/yGIceK0Ai6AAAAABJRU5ErkJggg==;" vertex="1" parent="1">
          <mxGeometry x="216.16999999999996" y="140" width="138.83" height="73" as="geometry" />
        </mxCell>
        <mxCell id="8L8VJX9xK1e9dgMS8Qbl-15" value="Python&amp;nbsp; websocket" style="text;html=1;align=center;verticalAlign=middle;resizable=0;points=[];autosize=1;strokeColor=none;fillColor=none;fontSize=15;fontStyle=1" vertex="1" parent="1">
          <mxGeometry x="50" y="280" width="160" height="30" as="geometry" />
        </mxCell>
        <mxCell id="8L8VJX9xK1e9dgMS8Qbl-24" style="edgeStyle=orthogonalEdgeStyle;rounded=0;orthogonalLoop=1;jettySize=auto;html=1;entryX=0.25;entryY=1;entryDx=0;entryDy=0;" edge="1" parent="1" source="8L8VJX9xK1e9dgMS8Qbl-17" target="8L8VJX9xK1e9dgMS8Qbl-23">
          <mxGeometry relative="1" as="geometry">
            <Array as="points">
              <mxPoint x="520" y="340" />
              <mxPoint x="664" y="340" />
            </Array>
          </mxGeometry>
        </mxCell>
        <mxCell id="8L8VJX9xK1e9dgMS8Qbl-17" value="" style="shape=image;verticalLabelPosition=bottom;labelBackgroundColor=default;verticalAlign=top;aspect=fixed;imageAspect=0;image=data:image/png,iVBORw0KGgoAAAANSUhEUgAAAMgAAACgCAMAAAB+IdObAAABBVBMVEX///8fHR4fGhcdGRgfGRkgHB37+/scGBUeGhnz8/MdGxz4+PgdFxc5ODghHyAfGxitrK2+vr7Qz88oJibq6urkcRfncBPm5ubv7+8kIB9PTkz++vXi4eHa2todGhXichSZmJhiYF+Af34tKSjIx8e2tbZEQkP66tv33cbjcBz89OrZdSWWlZWrq6tvbG1bWVqMiYlJR0h3dnQ1Mi/gxqnXhUPUdC3isofXjlDwwJ7iupjdgUTYl2HlrXv02L/xz7LwsHbZfzXszbTgmmDvzabhsXj769LYgjjimWDdjUbes5PdjlPotorfomrjmGfeeTTjk0L21qHQcB/QiUXsxJTz2LPanW/vrPwYAAAMj0lEQVR4nO1ZCVvb2BWVLFmLtWFJXiRbsRbLxqu2IQsNMJQ0TDpJaTvN/P+f0nufZZCxjWmYDKHfO19IsJ4k33PX814YhoKCgoKCgoKCgoKCgoKCgoKCgoKCgoKCgoKCgoKCgoKCgoLiT0Zv/NNPx73ntuIPwPHJbPb6zctnMn47abdbN++e244n4xR5tNp/GT+3IU9E7/2k1R4M2pOzF55c48vWoA1/Bpfnz23K03A8a7faGJPJ25edXBez1mAwm7QhuU6r13vT8Xj6XEZ9C95NWoPZzyftQav9aR2S3vT43dnby5ur8xdUN1+gY918/TDD5Pod7e6N/3p2MhsMBq3W5P3LiUnvVyiQk/H0CpPr9YePF2+ubiDREC1ceG77Ho3pNRB5O2W+XrbA/Msb+AuSrDXAntxqv385qXU+gwyCEdL7GyQXcMJItHGuII/L4+c27/GAuT4h7erjJyiLCVgP4ZhdDpDP7N3LCUjvDCyfkFF4SgbKZHZydXrxM/4+O3sxpd4bv7sG389ISU+vZrPLq7Ov42nv/AQpfXkZPHrA4pfLGTanT6sMGv/9p4/kt+MTzK9fX0THmh5/vrqekdpuT75slsL4F2xdL6Hz9o4/fyITD/wOP7MNacJM3wPB1uXFMxn3ePQu/oFNibTa1uDy7efzjVrofYZ0a88+//gN6wMa2gKFNZjc/Pr5vprqvSMN6wXwGP8FRh1Oi5ur0+PtvrQSwy+h8Z6/xvqeDP75r13Gjk9wpH96AYVOTIXaGAyuzy7GWwk0vkat+POPn1g4y1HbohSZ/Pu3/2xF5QsKruuXEBFm/GU2aa1Uemt2/eaezSTzZn/GKVfXjOOh/ZQ3TD+fwL62NSGReX+PSO93nIbX31v2ynFQNDiOLZZN4dvf0hufXs1QqU8u30wFc9Mrx5d4FPHl+4akHzhGrWYYRs2I/CcwgahcvH/dmvxy3FPmRX9jpfcG94qzrxsX7eY8zMM09pTN1wj9ph+GsNDftEaxbfsB+8xMrK0hOounEAEq529Op0Iz4bTurVkryXiJJyoV6asMc01nEXrkDisszHlSrBcSv+qPuNC05t6v9goOGdQIG56PzKcxYQTGDiODc0vXKcxPZ+dT2CuewWxv3dwe1ylpVL+Fdee+bljoeqPBltC1xV0MFjpr7SUiBBzkVc2JIqTCq074pOQib+QNQ12uPnih8Gb2+uTLxcevEJJB66qsEjm02Hq9cJMgGYHlt0S8QGfBXA0XMk0HQlZ4W21HbGM/kaEjAhHtyDNDp1ZTHV9+Ig/GjlTD4Obk936m2R/wBGh2/QnEGFRJGRJwbt0KPVlR5K43H62JmBqEQ0/iPiwo3f5RBp/05TpLHyIiBKIhqgXmk+Bb0ih+ajzAqXUgIh0RTsGrmndOWtnq6KG9OuRiui6r63eNpe+VPnDBcK3iy24aQXqlyprI/tTqRuA9PiF3ysulV+Voe8Omt6tNCB2zaXrd7QWCJsfVDGdIXijxYjx+3cIp2SJnwZMTUu6mxTYC5f6TMuQVqw2r36jEyOSoJALVtI9Ih+NEjh91Vi+qpJUdB5Ekco0oaG5aLPR9N1JVVdJCs2KK4B3ly+USKmyuApHIwzrgVF4Np+9vyCkKmfuT3wgRn23o8ZYx4PFGMbx3cQ5BcrsHidiOKHKqtLxXGd35qM5xHM9JHOck1Xf3w8JQVR7AcdFdBG24jD4ZMcwSiNS0DiOkDtxVP4IN8NnV5aRFVH65JUkh2+9bzAgJEEnvZ4ANV634IBF5JIrwdWq4EedOotbRVn41XO6eFoYaB+T4EmrWX3+bWie3JoziQmrVsq7gQzjUekrWYRv89jWo/Fk5SFLIly2TvEjXtc6WiUNLZ1e5/xARZmGINfC9Na94ognWgpXodcLkNt6KX3CShIvSig43IjER8kaDx/Yt5oxdABExkeOIg8xK16HuTccXp6fr/W8MxbC87/sQ2O2Yx0oC/dg8SEQeGRyoE1Gc38akr6GxnORERYTiBaZL6agjSBZJNByrwBUoLs5Y4mNDQ4RGhU+lTB+6uCgGzUg0JDbf0wT7Ghh9r0i6Wp3VdunWVK/X/YNEwDikYYjWuht2IDcAWjrs2P04ALugVMiLPA1GPye5vtmxvaOEk3heLCAkSg48DGeZpumQGUrAo+YWSG25T08LIYTkXq/39Dqb7CIeW/U68cjDRJgUeID3OKkUAyFWAZeUNigpChcpYbD5iwbPO+uu3g04XjXEEH7L4A1ivroerxQP/BhbyXMHDAmrz6s9Jq6zerjr3iGIGVIkB4goOUYE8icise5owEMKbotOXmIYii7GTpRUPrz9clvjVVHUZHgE31DWkb+WoGKwXbh3MDOUIkl8R2VR19n5rlu9ol535cNEwLWECM9F2INSjM6oMju8CPMJqi3gRFGtjrFQ5UVR6jNmAQFxygYWSmsi+dbEq6KPw53Vg9sO7gORndq7o9XrWfcRRJjuUuLEGrSdQIaSg74k+pVVOavVuEbMdAoQARviOAbNLKomxF6VOK307RJ6togduBZtj7yNb00hvRqsNi+TeF5ndxOxtbr+OCI4BjhM7GjImND9RaO6C1CSGsy6mFlADdfcalYP4QoSOapDq87Ki4lqcFIUYSfYMRQ24C0bEBM98R4mAhFhH5VaeG9CEsKYMwuV58RR1VzZBSK6yeRo9kY/NSEjMbV8nI2lbmdG0AC4YO7AmOGCfXps/eqFi1uojJSXX6+z/q67+gW0s0cSgYIieZ0zKThXdKvm2hoQiTqgk4FIWn3IxBEY2UyIRMoVuUARn9ouvIdzdhpWhQ37El0nY3UBRPZ1LT041LWEdUHOSbPJhSVGRKtG5EivGVImrIhsdNQmXhkpTIJypbS5b/GGCCJ+SFrE4f2mcoSzEV87BCLBvjlC3PQAEdlfNzyT9P5USSAlakZFztsZKA4JXJXDkJc2agSrRgwYYQR15ZSVbfJABEW870AbF7ODR0xCbDWIBOmD40e7chEmeyN+kIi9yF5FZV0vUGA4Czl7hZ3zbr/bXYKoFVGq+iBJeOeuE8kg2ElKddH5azGL5DgU8baL9S5tqdlt5HXicSUBSbyj0SlQRwVpG4vdRITYdV69Ele6t58BEanwuhohEq23/HbuSJJBRkI/gqzjtbX67s+ZHFMqhi0haK6oDCK2hBqRTE0L6/1gdcKNMLkxp2KLZd3tkDTh8qrH7ImIDJoKiDipZ3eaqK8kLlf6xSsUF6KRel1Z7scZXjdIgggJke/Foi/DPtsvlkyA+w1QVxAYaeUzuAmPAFYZkoJAFokYexhmsZIgcgZzZetgzXYbbFlqe4gIIRKBEVFkmsMZqBNhSDsYEUN8ZRRu4sJ15Betno4dsgdxNDdwYRsVMi58hEjAxoM3slXxyDA1a7XV9qED66rIPaC4SiIQEdK8542ygVWR6g02kB8iAkaLSIRIdtS7FmyNY4OoC1gQUdECPUkqSpWq5LhHUVVUiLA0FzQgAlkESkXlSunSwQPLdW9rOij62R2nl161Z/hOXfeJ8zOYKtkGE2UBe/Z1/e0jIsyBCZ7Miaj5GtYCbJmjuIDPeB2SHSmObp+FwsfLRPYb0qILWyc+k5UAnKDmpYUo29a9QkhZ2OuI25taJs+9W3beiNXL/DNHwMStHEB3Ugs6wNoTe09RlHCluOGra8bqMHKJW8MgMkQyViAgVl5poHKIKysYTQ8ST0qULtYR56/uaJK18gPkN7k92VKPS9bKhzYeXtnxCA/hyutY2DBVhl0Fz7U8X4Npaa33DYSIb97hLnYgESTMFNVxV4esAhQ9r8be3LU4UVUjNzU3jFDMUHPgAS5K/K7pAlKhu8R/S683M/xw67amS7DVVJd4TjpKgiAZWSiB16JMGGbIZLWUaToeD90dcwER1qogqCSoYqb5MvfXge4WSMTE05144Tf7O+pUgZXF8IAcPIQQdq/kfBdMbehVSdZPLDRfR2EMFK2sog2O2E0k+09F+7AX4Z0nWvkI2ItAs8pT6iDemB1yMx9Zq7NtPcubG3tIbRP3D7EqMFWokeKAZv1j0DV9yIX5rtjK3iIPIOWie11CgNG2gf1vP8IzIPewqvj+EHyQxaNv/j8Ocqi2PHzfnwBhbjV07RuZCKHKSar/hxr0zZBzKHb3oMDZCSUvANvz63lgJ8Ak6x++cQfkLuBHKBGCPgj4RvBtTH4smLh7dL//NPj+aC6DIFj8MCnyBKDm+n/gQUFBQUFBQUFBQUFBQUFBQUFBQUFBQUFBQUFBQUFBQUFBQUHxP+O/g2M7nxnG20QAAAAASUVORK5CYII=;" vertex="1" parent="1">
          <mxGeometry x="430" y="115" width="140" height="112" as="geometry" />
        </mxCell>
        <mxCell id="8L8VJX9xK1e9dgMS8Qbl-21" value="&lt;font style=&quot;font-size: 15px;&quot;&gt;&lt;b&gt;Data Cleanig And Structuring&lt;/b&gt;&lt;/font&gt;" style="text;html=1;align=center;verticalAlign=middle;resizable=0;points=[];autosize=1;strokeColor=none;fillColor=none;" vertex="1" parent="1">
          <mxGeometry x="280" y="350" width="230" height="30" as="geometry" />
        </mxCell>
        <mxCell id="8L8VJX9xK1e9dgMS8Qbl-27" style="edgeStyle=orthogonalEdgeStyle;rounded=0;orthogonalLoop=1;jettySize=auto;html=1;entryX=0.25;entryY=1;entryDx=0;entryDy=0;exitX=0.5;exitY=1;exitDx=0;exitDy=0;" edge="1" parent="1" source="8L8VJX9xK1e9dgMS8Qbl-23" target="8L8VJX9xK1e9dgMS8Qbl-26">
          <mxGeometry relative="1" as="geometry">
            <Array as="points">
              <mxPoint x="698" y="340" />
              <mxPoint x="889" y="340" />
            </Array>
          </mxGeometry>
        </mxCell>
        <mxCell id="8L8VJX9xK1e9dgMS8Qbl-23" value="" style="shape=image;verticalLabelPosition=bottom;labelBackgroundColor=default;verticalAlign=top;aspect=fixed;imageAspect=0;image=data:image/png,iVBORw0KGgoAAAANSUhEUgAAAPIAAADQCAMAAAAK0syrAAAA21BMVEX///8xMTDEYDouLi38/Pz29vb5+fnz8/MyMjErKyoTGyDFXzgbIibw8PDo6Og1NTRLT1I/REghKCy9v8A8PDvW1tYeJCnk5ORoaGfDxMVDQ0K0treDg4PMzMzd3d1hZWhKSkk3PEB6fX8PGB2YmJhVVVRubm13d3YoLzNISEeoqKhVWVxwc3avr69aWlmIiIiTk5L36uTv1svluKb15d7pxbbPc07al3zLakTThmeenp1mam1GS08vNTnXkHPRfVzhq5Xmvq3hrpoACRHReFbbl3vcoInGWzIAAACTyVcTAAAZl0lEQVR4nO1dB1viStsG0ygpkB5SaKEYCAmKLcrq7vG43///Rd9MymQCieLuepR9ua/rHIVMYO55+jMTt1Y74YQTTjjhhBNOOOGEE0444YQTTjhmkDRNfvYc/lOQm+/fvn3f/A+Rpq/uztrts8cr+rNn8l+B/H7dPgNoX1/+r3C+eI4ZQ85X/xu6vb5JGQPOj5vPns1/AfLqFlE+a7/8L6g2JuRYtT97Pv8BNs8Y5bP23fqzJ/TxuDrD0b798dd7MPJHu8j58eKzp/TRoG+KlM/aN3+7ajN3u5Rv//bgvL7OKKOfd395cL5Io/LtXca9ffajIjiTJLXZbNZHHrrJ7+0sIP9oo7yzzIPR683Vy9317fXjzcVRaz75lFJ+3myQVe95MEj36ds1KLdiPB+1tdPf2igF+Z5lnsCDYUMA3R//Pt+223kqftT5yvoxpXxDY6ln+zHlRG8uLl/uIN1CinbUaelF6rTaMOlCVeRZ+4mskWtI97r9s70Txo6cclZGxcGYfkKq/Xz5/eXueVe8SAmOOUP7cZtab0wi92BntxV0EyugPnvevw7yJXPYsfGSyIOdVfKtCmLHgjVy2El+Qe1m3GWM20/HnIxsMoeddUMurstsF5d4u/3tmEMU8tHtyzS5oH/sKnT758/bx5uX678lBUe2i6xzc1eQaPvs+duPq83mB/LlR+2tAZ7O0g42klze/QN0r++eri5AGZF1uqGfO+Zkk6TXV5kpP+bmuX75GYsXaPP3izUFCZJXiPHt5dEyBmXg1c3jbabAeB0B7Pv2+dtlSjd+5xExfjrSiEyvL77fwLoI2SxeIZNXT1drfB8SmXf77OUonTVMnf/F+UIUDbSou+sbtDL/HqGzJjcXP75d72ZWabpZDuYF+bPjC08kqPPjymg31fj5ylYUdbzhiVzDNk5JqQCd81OlidJ53+D5yCrGzeXdnj6nsRc656rbyCu0EXv7/agya/rq8axUvCAYbZhXqOTh6ezHUYUn+vJ612EBXD/eXG1ePxSzeTzS8ETulEcx37sXwPeNG9f/5j3P43LWzL84Y+Cxr789XR1w/Gf9gu65OzJnvSkI+foGuKtDEuX/LDzhkyEBCteKM8WukrsDSOzqxS1O+fn7YVaZN4U+9tQM77l+5hlJxXXdyOTRHGzXVdBISoksK3KSK5JrQrt0Ik9LLhouhJTMtCjl2EsfEG/Ip59IrT/QdZG+LAy09AUVCQC9WcbZmQqCl82VDwdyoy5HMSlqJlh0fPcqWRN+Bm8VgmQ0823He90+vhyg29jZqA/Ua0dvEoKdvuBmxLk+acheMjnaqxOExSXX+FmjMZnqEz++xq8EF/wgw7qerI82qU90fZpKuXDmJ2N9d7l5I9DSL2hf7uOauLTXkIWGn64/v6qHjD2oB8lrZyXIQkqJdgU5UCjOThTbPu9J8N1ZY5TIVen1TJpiMkGun87285Cz55er10WNlcm/k2uSHO84Dl++asqKmOmNVB1rzrns1+yB4JIJS2I16w0SjsqkPuLz+8xez1cUxV6lY0mzMfAdJR+xfinpSgNRv5Zrws0LNPSXD1Mwih9aU13XZ1ZkcHuXKZeY2EF9mq6HIcjTUG+cJ4quDBquNBCM+IUn9wzsRlcWJqvVaiKANYrnGtVl8Iafy3D9tJt/xUx+vt7K2vyumHl/NpGJZgJhMDOZnQHKoG7xoTBJpEN6DQKM7nnxClABMTHsST0x7LCBnBxkaNUTEL1keagRfNHAKNeoq5vbkiz7+cemxjlV/js/LfRLvWtGmvYIgqhnIIhB4BRG0EEduKRBvaekLxuDmRUaycLYA0LWV3Kq9aEwwO7lpvWpKUnSTJgkC8GthBl4zRc+fn3xsiPp9u2/FzSpBG5lyFrnYr58N2M+7NVzvglpQVfwIXaPEISGQMhm/JLSGxbHpUrOWPUGiDqNuh6/4clCRNVIJrnqrBpQ+GTQ0JP10c5lbzdvgR9y8fScF1RAxJfrGuOvZLdy1uQlWp53d0SUaWOHcEx6ZedDmFF9EEZR0Et9ED+QI3RROm/MoijSGwM+IdnsBaY3S243EhMHwk49ny3Ilu+b+96CBGVzqt/t25uLGm2PZAIsTyXWqNPXfmc3V9Eb+4Qhprl+mj0ipEmS15uzeOJKo2dm1/hpc+IAsYHkJFYM0hw0gaGnJuDJMvwYZdVMLJ30iCbwAri556TXV0nv6/E7BXK9CTQwqXriedb5831idqYVjOtClluAXEufwYnToR7E6mlPR0jv7ZkeszFm00SwtDRbTfQwsVZft+Adyii9SPo6RLAv5Rjrq5fH5xcgYmMmANUDUeKVqa+/ZWnn2XuO5POWUMG4TshRaq0k7yQEeEeLZcU4GvoOztESv61pmZvnFNthsqt8epHO3oDgKzWRugDhWIsmsa01VwUvyhR1A9uvecfxdJAqldhxiubgtTX+QNjTdFbNKa4NVBSS9BWWoaxvUHVx+LayMcgZN4ReT8C0nJCDMov7eJBBFkAIC0sFaU+ecuQLqLaesiZRvh91cHXBW03EcBAaimJavWwNiIFXYXAfDWqG3EmYv0ua503dqV0Crw5P8V3CXUcmPxp16FMIBiLY0O34HspYJYSFqf1Z+3i8ns0KC4WkNCBAkpcIth3vPr5cbb6/V8xMiESaR2F7BV1lL/wcpYZwJple56GwZoBpET0fq5TjxuA1ykdeDioiNR3ZrYtuIKVzglj5u0n2fwg7czDEABUosSDqjShPQBLa+a/PB4kZ1AoZ/PxdJmzMKpWac2wDQOEPM51kuK1o76njzczciEkW/Z1pErQsmv62X3XFuP1xyGfbMpJyhM1J88uVGtSXwVSfDM7PByvd8uw3aFBw+CoePtFnkV3tDGlNiRcSLA78TE/OKK/S6sNJHVpzytdeyhnHJz3fhpFTXmFVxH7SD9/kzdmkV2+CZBKiScgTy3iFNG9aK3y4MJmVJNbxSN/SJwkGcWclRNlRWp6jfAlO8/K2gvK3Q2wxl3K9MeNfHcr5Oii38LSFIBrngVJhAJw5PW8UhoNQ2yuzF87U5Ua6MERT57ASu96wYsFxgYDErsDTX6WqfZiUFSwREcJXFomyp/JufQln0Jj4ZYKm7Vnp8PrE3xW0Zsn4ysCqhZtmyUJStzEhYnzukzXm8u76tmSj8jBb1nSsLSB4lWrKR+dEeV5K9Nx9beW9QUUWS8huUZmcYuHaCMm4lZqNhr0TJkKmfR73jUnq4vLmcXc7+sBdizwux7MvlRiclyVXJuKEHO4JLqisVKAy4cOdWbGME2BNZqOwLIMYRXnIf/dyodDxsxTYceyDT0BJOBdiYJbepVSWl8m8ouJKObNXRheH50aaUYbdbQmFZVBzg+obLUBUMD1ycwWPlvyMn6j4eX3oFjM/a+LTmZRxVvRKEacTK9ylTCtsIBt+nmdUfq84lIibDD5S5AFPSlWMY9bri+/JgzMvFwdXUlLhS0EOu8fZmRZm1RDkntwoiJ3Ai1og44JxNmRZForDUVeNn+523HowIYiQXehcknTFjEucRsx6c3FxsXlHrsgU7Y5Y7XLmRtiARk93JVuxzXCF3ybkbUguyBkTDVkPTcO2pWjaw4eH9O56E414n0pYcbB0RKXOzM4yYkLYcxm/DG3H8lbFrgAdIWsj6oPA5uI6laR5X89dLTHJsjUaJU4wDFtoOGfMcq+RpT20m1kVIc88EwLGbQYZmzDN2nKEUNU5+hXsmmqRc95CgNUk7iE0K18MId2Ny50tYDE1cPPi3DztqSd7ktwo41YwU01H/kVAXxC8nii9E8hcUuANbB7pwH41yWPudpZMmbNyxrvDmTyNbM7ia3n8LWR+ygp3qQl16w9XssakyHmac85dqhztaZaGHBsxSRwYytnLTC/Pe4ikp6Zk39uMcH2w9/KYxp9mDIq1wpcQ9VnmgfkZulDmPUBhnd5yHrebGbQGeT84B2ki1RbiOIVaMoJZ+NS9vEf/890Keocz8hW5Sy39VgapfbKpgKoUQndKhudiTsRqZuVRYaey5u/lbpOyT/tN5EldMgc5SS6oAPmX8k0DP+MYHxSgw8y/9vyy0VSEKMMShvb2GgEQpLtnyo0SnfltUFFBm5qJlCr8Sw4FqSbsRPLID07LpyhlKxRTZsLs0ws6wQR7lEFy/QGdR8YtcG7EJQtmbOVfyU+y8QEcnpp25d5Z7q8gZdRQbhYWtJgDZ3pglH/ib4EL8QyfmGrxjlmZ5mFgVnVMypmmEIOK4Sj8NGFzUcvSzWYhzUCqVRdWeSiffkS/lbdwynDLH2les6pjwmVShpTJIEul9YqMF7GJ3ZeT2UGzsG2OVKEu+3lmKLgfce5HKyT5oDhHKtasapg4SJUj6L/T+7OjP/vDkQBh6a+gEFdwdvluwrmSd2B3yrU/hULqCVbV0UvFgCELoXGLHe0xoGNDu3AyxY4DAMpbiuHARFnmxCE9FLAIvcJafg8otYDTZvLOWBVlMsshY2NHuXEl5UxnY7Mh/YxMYX8TOZDYn2C50IdEKlD5IWcJKRuFmFICJFcCNiY1lBvPKijbqc7GK4SidKGfXKPy8gpyxOsU7x3b5tUcd9wSluuFFBJDVgbsAWXgcSeSR1F8VSEPKVMKGIhBZZ1+eiGz49BeaJqv5PXa+e/vdjN2YBU5Yxm9R9MoWSLKt9aRv0uOdHHFl/sg/cxQYATgsoS8OePKPrTejKWKqfZvRypaCSfNncwwpyxIQAz5l0UlIYIKUdicQsUnrSxICeXGTEVZBIAHTvgspjcD3Bej0JUVG5hqv9pqfxOk4q5AzUQUVpj0c2+p4OtbdkqFzvPy1OXm/eaSZInk8jVsQjtwsgDUiPBxymBHV+g8F8b3Xt9N2IlWsY0kzfEMTl7RAteB9/Xre8kI4+XuPV03I39nulv7UL5EojVswIQ0K7t20tO85M5SPj7vdROrXzVn3tPzvb38Q/LDQQRMqp18J3a/L8GHvT1L5/t5925W5MxHAwm49CxxgcIys7LrHA/LmM9ExQbeMxj9WkOIBJ42/5D0wESNUmZC4etsvCtZxztfJGNMc20TMkOn3bx525gaTD7cngmyDdYwy8GN+OBrJk1ccliBiRSLzru8hPCLkUrD5VcfRArPa3Z4Xs8/GHo1qViqEz3L0DiGYjjHxNqVwAbQwjt4pyEZznA8GN4DNB2kyk0YiOksI2/ulI5o2fNig8tb6di5gncBfV2K85U+wfqPSXlMevUdEPJqFobBbFJYC2zGtFu4Iq9GYPh0AL+M0HmkynEgpjILhbvkOThUSeApH6baxJ6bOAxFnd2jFqsarqb5JYLY2TQuOBRtp0GMDZ9xaA3jQIzqzsLRrjx0FY5yULlq1xu/Fqk4qzi14jx7Plxfynpt8w0xLugZaQz26/sEAUOF2U0wEPMoRoX4JyCfSRSKDQ3rG/xipLInlZyz7S5GrxqRDyX0naBB++flH0xENNJZAQZiBdVRhbCcdwyLGR824TR68bZhOJpC17SqkwxFUF7VjjHa7kJNnmoIs72CjvIqOJs1Ts++AQZiQ8iqqkICiHxmsdjAvXaaJGj+NFK8qUMHo8NKLD4oO3YO952yU4xOZu9C2RkIGHsHbkmQpPxB2WarbKA4EZ+xRole0QWj0LVTbBQaGEAP4bNm/EihvJWkzA6kDDjvy5nAN5LsTAwTbybvsYjPupSGSNIuGd4cKEiVY+9IunipjUCjXZxisVEr7KkkB9MpyyG9MHK9g3fouGhSlB7RlHUvf4gRNdZ1nvP0XjOnQRBNYTKSKr8IJHc9oolFbjA85GtGPTn3E5+xpi0ie4WrCjXLnuIpFhu1ONduIsAWCTMClE13Zh++KUnbwUpG57Ka8mTmOfnXkJnxEDPYjfSTQ1wQ9d7q1XNr4N54eCMdLsPhwCMqgZXAY6AGW9krPEbR6G1rb7OAd0c5DBK4Sp40FEXizXd0AinFD+HxO3j4LvSLLFC60kiWm1NML7RGlhV6pv12ossoEjY8eaqCShHbA114lU8JYd8N00wKjuPgZZpMDuW9MwWleEcBcPaOZNJZSMEe26HBl7329xD2pviu4Z8OblUaRP5maFnZc16Rx5OaLRlKbAz0W/9gCglGHPCdvGF82rH3GtaNrNhtoczFfD7fLmHA8UL39dJdCcJDzndLD+LiE/9ASLa1TKxKfRUpddl5d6iyHbtG91vD1/Nec8weki9I3VbnEyl7WeJQvsHE99VtIPkLsTWiybcpt9TDKLOfSBltRFT04RWRXSggbRRbfa3WZ/8GynRWOsZnZ/dhi2wHGLmjive2tmCHkcNxjqPRjsNrjkOTvONw8Bk4BT4Vx0WsuLQ1GlxhauAKH/+Pgk/UUY6SPDfHOAr3uZSZLIsXyjfwnbkoguSe8Q3NGc3FeffBt+87915nZIw6fZ5xOx1QSASLTqdv0H5XFLcP91rYAZbvLx7cmttZuGEn4JRlp9MZObDV2OksrU+lzKcbTIRQfkqEG6nqEGSOsCHdZ0VRHEdGlxW344W5GA81zhqzEhXMVVFkH5QI/BDVB2fZGks1Vx1btdFY3c7HS2fJsqLKWhwZzVl1vp2rn0hZmWSUK/Y4pS2YY1w98n5X3S5dxeiq4nZ4by7YLqDcUiVny3aiBSt69pIVF6GvjdSWVIvEFqDcEsXh0PIf2G64UFWJe2CHI3chfiZlLUyz+6rTolBbVTF+pJdO3BewxKGpOXZKWZRM6M5DlrVS98UvMcrqwtaA2EWXc1nWU4bswvlk9/U2aKMPON87OOUOWB8no2x6kJzRf7gnSyiLwC1Sy9bc5yOWdaVhq899ecrwMWxRnVs8TpnCKcfkeNtWyqQsejFlsT9aqEdDmST5AHB2a+RrlGNUUmbF1njcGofHQJmy3UCrcYHYWnKvU4Z/56paynMXPgOn2UdA2XkQYSqizIHbeZWy43vma5SlmuN5tnEElDVggR74MQdJWAllJnVfo7g6KnVfgDIJfpggaRVde8j2+S9OmQLB597mPZBqa+Q9u3V5GqOsKPesKBkie++EcxUEKVbtKxygzJr8KKdcC0Vx5ARsy9NAgDY5b/iVKddskGt1+iC9CqiaO1e7S8lAlLcjkJCpEuAxvO+CRKOmPLBiPwCpiHi/FDHKSofd3oNwbpCBqj4sh+pnpiJvgja7/4zHYxUmyPbDuPV/rjH8pwsmzN+3Wq2H7ngs0d4QjBgv4ZGJVuufoRYA59zttP4Z1Ub/tODzFVSoggHziAHkW2NxqI67X5gy/Gt9QRDETzrTRmBZhhNacH+UtMORa/hWoNQYE+RwEUxKHXcELiqBFRpmYAF/ZgXx00mcH1gBfMaXBB/h+cknfGGQDJO1DxiOoensJcOBopCJe5sUl/71NpqDFymOSq6A/1HozuyX/BNOOOFYQDMl+w9/M3jTDV1Pgeat5X896SAwmqZ9bZ9WCs2ag8glLnyQZI76o3edV1NG/eXn/VWXXwXjimy331HZoVRjuuPuu84x2Q8t8QOek/pgKEP2wdTse3Ec0FSXfXgf5Q47Pz7KEsjHtRrps62lxqSU423SZBM2c2vpLyR2CfzHGZLBJG9mI5MBX9obSqy6AJWmvX0IFWmoDkOJB0RszTb5Gm+bJtxwhzvSEtzipsBPzTFMhdYMH5DlDUliKFuSeE0yobjB76ZC8dJhB4E+CfZWVEMOkOFIpQMbvGNTATUIKKwMbSmqKusysNugsiJwVBwoOUZbUGC4C1bdRoli80twrRvvgHHhnGWHQZ/1vzJlUFWIYvLQtdIXxXm3KyldVWRbYzMQxe6Q7Rq0p7LdzhzUZZAyO9yKIrsdimyfyiirc3DLOABlm7jogFcPH/IU0R8D9Lpq3ADmDKDYrs3bXXW+GC3NDvvgA44uvwASNTps14GU782RqC48d8v2GUQ5kPpiK+AX7EIBAxfmH31u/c/DWAD97cdHlxL3BcrtjkHxZpddUMZWXRjsP12F64PSGVKWSE9shTTsiCHKrFFzwZvAMgKSCVrdD3ls6k9CsbYqu4BPFWaUWwsgJnMIZAZELSrAnfGA3dCElKGej12yjLL9oLqQMvtJfzzyHeDdrSqCUIVR5iBlYJTdOSuCGKaMHubi9i3KTkcd0fyIVb84ZZLjaSbaimxEUjtSFsXtcDjs8rQHfhXfpBzwUPnNTuv+ayehmrcA0YcCMx5xu5TZBceBwoGUgIcOOuyblGtg5eZzVfwjj8Z9HIz4yEHNVkEStke5T2rhaOQs1bkHJPg2ZanLttjhn/tbMh8Dpx83vW0QZiHlbk7ZgB4bhLCOARvizAGUqZG4CN3X/oLelwAVjkHhKC3F8YijQQAObC6l7DyAgiMU1cAW1a1rPrxJGQapRRj6yheXck1ZsCCXYmHxSLqAHMy+Yso0zL62rGpyIPsE2ZYaU1YrKY8DDXzUeDzv9M2vbcw1ewHd8QM8o6uAX1swx+5DQTnLOSDtcjWjI4rL5VYcgQA0B5TFFqTM3gPK4hZQFlVAec6GwN4X/fkcFOBfPErVQNVkSvG/TkA6pm9qvGTG9kiC8iiupGgFvOuYpsGAkTwcpJA8eEmDkSbHGODNmmKaiquKBu8Y90AzPpvT28j/oSG89sWq4BpeCeP/y3+FeyFz07bt5VFQ/iPgli0WoMW2OsfXKvlFGKPFw5jtLpZf3ZT/IDjFiDzDOe3knHDCCSeccMIJJ5xwwgknnHDCCSeccMIJJ5xwwgknnHDCCSeccMIJJ5yA4/8Bfr7S6AsDHWQAAAAASUVORK5CYII=;" vertex="1" parent="1">
          <mxGeometry x="630" y="122.5" width="136.71" height="117.5" as="geometry" />
        </mxCell>
        <mxCell id="8L8VJX9xK1e9dgMS8Qbl-25" value="&lt;b&gt;&lt;font style=&quot;font-size: 14px;&quot;&gt;Realtime Processing of Data&lt;/font&gt;&lt;/b&gt;" style="text;html=1;align=center;verticalAlign=middle;resizable=0;points=[];autosize=1;strokeColor=none;fillColor=none;" vertex="1" parent="1">
          <mxGeometry x="593.36" y="350" width="210" height="30" as="geometry" />
        </mxCell>
        <mxCell id="8L8VJX9xK1e9dgMS8Qbl-26" value="" style="shape=image;verticalLabelPosition=bottom;labelBackgroundColor=default;verticalAlign=top;aspect=fixed;imageAspect=0;image=data:image/png,iVBORw0KGgoAAAANSUhEUgAAASwAAACoCAMAAABt9SM9AAAAflBMVEX///8AAAD19fXNzc1mZmawsLBWVlb6+vqioqLKysoYGBjn5+f5+fnz8/M0NDTi4uK3t7fBwcHZ2dlcXFyXl5ckJCQdHR0wMDDa2tpKSkqMjIzk5OSpqal/f38rKys9PT0MDAxBQUF3d3dvb2+IiIhzc3NNTU1hYWGbm5tYWFje2zF9AAAW4ElEQVR4nO1dh3biOhC1cO+Wu427wZj//8Gn4iIXEuDtLknInLO7WYJBvh6N7hSNOG4jfFNckxIa29/8ylpEULqG7oDLqwfyDUTXwBH/m4Ls1UP5+gJBTv51QfvikXwD0UF/CYquK37BukOksgZE8leP5BuIDQoKlvvqkXwHgRQr8OpxfA/hiWpVrx7GNxE7+p2G94uHwbJ8F4maZb+ofSS2hWYhmCV89YC+sghIrbByhaeUTEgAXz2iLyt6PWqUenSbXxbxkUBrmn7TVHz1mL6oHFKwI7+atSvnPaxA6OuvHtgXFLgESXG8YVIGV8U1zd+AICvHYAFWxnGmk0//LS6+c3j1EL+QLFXLk/Frrse81PGvHuLXET2ccbEsQJCBygLBVw/x64heDqxBUo66LpQmh6PyLJ3/ZaiT6MRoXXwR+j5U+VA6chy/wArkavzqUX4RITaraoUJmlqMffSP4LjONEMLwX71OL+C6GBHLilhWQ77WvNLvNRkDZTWQjrpDOOy+EWtvnisLxU7TssFHJF3IoDY2MhzshovORgQYvm1I36ZmOnSipc+dHgV8ganF1eCViJma7VrM+fV436FHCQWKCHle6kMNGTqQ8FNaFKsBN6Ep1ZYVtJ1SVJ2vv52PhCrNG3fs6YrKADmpiZFKrg2QgbVWCfaxpn2FbSi+eLR/2OhDo1WY7NUaOvpBjRRF4B19aFpykrocdhlPNIrMbuPGvedzBeOzGiZmJUbnKgUjcLPb+05N5CG/w86Kb2Rh61fo7OSb4gDkarudWaiIbA87qyP2EwxiffhErKa7wIFrBxZJFuF0FEHwPj05MjTKsgzc/byHrYLertIBamrc7KSlNi4e3tQmHPA/qT39Rt4QWazM/e6c0Y8GrttEIW390MNfAmKaCQUvmknP94JOmzUqjzx7qBHKry9zhmKBtTYdke9jMzTTy9TOlgLoAKFaofqckpwOt66Snf9K3r3aNQzAZOOqKx+dh5IZucgmlHRcLvQxKyg3tUr0zlRjuHNfMGFuWR12c+28SqFSetOyCyRH69EtdRzxrnqSlEMU7cdwSJWSkN/n14x4hdKTQBKCcU0yc+NPfwoTG8yjkdddZT0nExMIVVhAvxXjfpFQmaTzR1sHikUMV89nnq6KAxVpSbfllEQBOOip5VSkzouZyKlfEOwOpmDGogUBBEJ8HWULsErcDm7LxbmvxH5KcogS+nLhv0aASDkObsABTHNBhSKqhjcPkPX82XAb8Wj2p/OFNaCPT0cOvCmVya6oPcLoLJzBIpFtK85/8OBfgXBdhzTB40qjc5D/yzhnw/5koCJnKzHfct6NL30j0INUPhrE172hfszewBIhonDDQmBgUZcVBfWM0za+XTKlfWFCKe8+ye0CnYM/f2zYohoeW/vDsYho+2aBJkS+38ZXfAoQ9AEmioUdq4T0UqYF//Ac9ZPZAx/JQ/ukgVNuHt+oLfnWLMSBJiWnhYzDxSUfu4M1AwSU27+OlgyPxTXaX9es0x+SDzcDxZm8PwZVNmNgBZyefbmtAMaVW2fcQXVVOTtXZBtJKrjiP3kNDntZAr+NFgHZcrR3A+WjMhnIe2ipPnNRUj3lccHTpN14In6o1vPhJVhzWVW4z8OVjR/9v1gcZts4CT97YsOHlAvsHim2LS+A6zhY5mazT8OFvNtD4DFVeuhVkLaCheLPl+Z31srzLoQPQie0ayDEq2/cC3RoM2GMmUF/rh1tJuJbz8C1rbmtjjhRGGZ3L7GrLVa7J8CC61vkyUCXp8Nkja5N6LYTY6C7A+P0vrzMdh4tNKPgOWySpVcsS+YCLnBJSO3wYisam/RNAx0WUFM9SkZY2gVo7WybJg2hZEN92d/DSyOOz0O1ryjAukUzZo2tonTPQNBF9FAwYpCw8DBcZwnibU5eOfd5jfEpi9YYvj3wNKjh8Hi2H0CeYYc6QoEZYXDpnRVgleZc9YMngz+WbDGr5Q2vyCB20VM0f97YBnt42DhKrVkjsQkkPBa/MqZPOI4AMq+R8C434+JeAss/GVLsNS/B9bwIB4Cy0TOTT2BpTIpfEoe3AosmzyY48j37vYuuQ0W167A4r8WWMiUz+sTYGq7x3CVWxaLscpjGRuwnhzlB2Dp/xAs5QmwUrDhWiBVeZ4sSnrmcge/Xgx2/PSni+I/AItzzgtO9dXAime1GmajNlLz+KxmeeKvKKE8UIa/AtZKvhpY87aKiHcJ+biM1xsW8GJZKU/LwdLU/luCZcwmK1DQ2qhdqD0/5FDGlBUxVH5JP2XCUWUAngyVfmOwyEWUPCTYegkjUXCBx/MCenXjMB/wW9Snt21+Z7AgJqB4c0Vt4iKienA3IB+HQDFMx9oPXInhswHM7wyWiXj/heyuEEQc8CbMXRe5Js0swtLVXY9Zhs822frOYHE4FIJLGISckIhClx1TzhsIQvX4QWSBf9bf2QfLOOw4Cl8PrCn2LsybTnwbb3fqBvu0K/yzfaN2wTJr4G2L6r8eWCpYSykAC9v22u4XK6E5hU/w5rpnO5LtgoXoXrkd99cDi9TPJDSrWuEQooB30yXxFficYeTc/MBxFZJI9MnnXQiezBzugqXupvAoWOFtY3CMeT7+CEs75lU3tndG+hxYhxpdlM4JggR/cg+gSYLKBudOY4UqxwkhfjWHfAOs58K9u2A1AGxSuSNYt2Lw6qmtCw0UyfnGuhyfhDLSQBhZXZuvtxotwerTTHTjOP6UDvlAOFnmWH1V43oHOZ7XOqOFwqxdBVDRk+Shm3rac0RrAOvKvoYo7l7k9QOw7EX6TtpRnc2ewKXmLsBatWnAcuPmHGQVynjM9KTDJyH3X+XI47DcYjZPAQ1IODoyM88RrQGsgN6zbUPH6fHSsrPL7CZYZrPe07d5y3InPBZ+5/cDWPYWrBv5LdsC0D2bYyzrrJP9PJlxKTkS+xVSEVxG3YooWDr+tuc20YnbgRG5H6wDjUVVjdK3xY2ryVuqS64ofVPv3f5yGppOyiiiZiXCLYMsgYTL5whzreOfHRN4SLeQZYDADaY4UzkEA9W8A89VHd0Aa2+y7YOlCww+sberWuTKsUhKz4iNaRbv2Bh4eUQrd9S9FWEQBA003THTUyG00EoumpRIQaAHbTrZ33yYqG2Vg/IOaLZyA6y9NW8XrHFnx0jzaNikXN4erj1nXAzspoDrgshtwKKdGmrlkz2UNq49cjlqBoKLhp5ZisHCeps1GQIIK7I7jR9iEumg938Cy76MYPVZ1jdIOusxsAYSHR0Xn2ctyvaPZHYyq/URIREtCjfWYJmEkqefUwn0cKCt04wrolpXnZOzo2GJJHV3HmhrSyFHxgB9qdsY3AU8RbQGsIg5lJEcTDt4BKwh8TipjRtusYbEc2PBicGqdGkFlo0nYXTP+o5mWc2JU2TLR6PjRSc60VSew2EHOxi/OqgQRrzroLt+ypXe4Vn4ud8NFl3mZ8eU5j61xeX0OxbMTanqBRRLsCBWxfauh4+/Pz4MTKvSKsTdcY5MoyYvdGOg+VPmS8Vm05BNzl2ZzDtlj5T2D4DFiUndMvdtSrfAWs47fQnFAiwH33t+XxUg3lPejNnySHRL9ODEAAgYrKBE98Xz6+/C315vs8p3yB5Y8iNgrYSCtTcN8Sp18zIWLEIEPigcWgp6d6mP4fgILx14+47nAUsDwZr7EnE5U27DZzj8rrtjPQ+WbW0NvD7Sr+QmF5zBOhBn4P5NEAaxmItcPtJN9Hg617/c2B/go/c/Q0t3wcrAXkD2LrBog45VaIJxhrJ9F3YC60i18IEdIx32P9iOM51MTVmC9PzGINEdPrMnZResg8rv8Ju7wKJ3vQKLbaxjnfbiEvSyzoCDElr3xx8wLiLHOFxkVigV0KLbHuABBE90wXg4rHwbLEN3SSh8CxbHL5zHdrt5cvAd5xTz/YFfvP4mMpPJx+tuXhQgF/cKlgcpwRNRmj8Gluq3c23GJkLoLooMw82Ov88c7Y/EB1btL5zvlpbmIhJ488kqz4SW/whYpusNy5F2AyzO6BfKVa+wmMG6DsoZ3M2xTQDUUGVUK3dOZByiAm7WTMaIyz4sfwAsXanphyS+wyvVPlhoeIsutdpyFoxgRSJ3GHC/f7+pADKxFuc6GuTrmD0a00klTpa8W4vbPRHT+v9giVRlEoUUcOrJLbDwFg1Gu7yFCR/AIpH/MQ1x9+LuguRQWvMGJ7I6yI4SG8SpssnCJ6+GlN5P5Sb5v2CZVP3L8c4oKb2V1bCVuVRvgQUFq6Ikf2Qa95rgwwWoKlt/NCmlhk3fABNcLrDOlMG+X/4nWEN3hTkk8zFYeDfgOF0WMS8K1rCL0hwU8Hrv3TigXbSrK0aW2N9aVeERkf6H20v+T7CoEjCE3ew+Bgv56cNtsQXSIykduM9IMff2de1KAXQmMFeBoKFwmRc6EsU3OZPVrLzlosfXw/8H1rBgM986uDssWIa45H/yEFvdgjUV6o0T8V6aDRH5n2yWJtbo78AhetnUzrnBgXmHY8sAHcv0QfEoL/1/YA12mdH1uNiA1YNoaS4O9Cpj8R4ym8fL6FZCcLc/rVtVvNkf1uGRYsoakvCYq1jz45FLXfYe3jwwBDeun79zAKtiV9x8C1a0uGss7eae641m+Uuw5sT8nfcjgua4BgsREfUw59UsM2KeYSzbwm7O7gORh9vV7nivuh3+QJ0us5LQSGlFdxvRl5LNPROwEhYsGp1mbN+062sn27sjRgj4vdMGLuKUJwNmyhbAkzONHqNa5rg23eG4DuNnj1scH9tEA/QrfaH2/bQZEljC4h3cOA1ZFMyBtjNkYWo2c5+XCJHBGz6k6rbt/0BQA9+tZutKV8/Harynoh3J/Uwlpyw503PXHC/3Y10/2s51OUKqT1R5L8dR/WjPisVMHZc/RkW5bvyUEt7xJA8dEIfy5SqdV8aJfJVmaikaMl/jyB3yNB4IxS88EC9VnA9oIANEkWfj2aezVS3rVVp66iMwvqftHfXoOtgRAYt96frsqni9M7Z4PM6UHA1N+WybowPCiT50Y9Ix8o1jT3aMgZIyQgYdGK6jlB+Isu1WWTU3VlN33bDRoozOXJYwRGdzrpnKB91ht3uHw1eGjLVYNK3AHVmHiWcv9gR8VvgiS6CdA6YVhR9CfJUN5wZSM1i2jfX53sTFGimC/43JuA2hDE867uaXIh8/p+HxXiY47OvmYo8JxLrh5tdjkodFK/jM+eEJlxrfnjsBEHyXLDIHZ3ykVTsrg+9wjVDca+Oz7nJSHMeBNvrLUfLTpctvhfFVSZKaUyo6RLI8z8ZvNUQrrKoqtDw4AO1EoSW4jIoauijUhTbcehi17C853QuD0qol6XyicplMPwwrLYjKspOky+fxrQbRu4mgge4EAgrEsD8PWL7IfsjB5BwegvqvFOfdlhhCuEB5TwkOPBTxRlln65HttwDAYqr88W6a7QZoIrr4bAZqPStQEdjlYRnXNk02YxNN3KcyiN9fejwRc7xZepjZYYZnITy1g1JHK3OOg0r+k+VH310OGoh07K4GoxlMsVqacxDV2gk0+NV7Hm6hYr9t4SMWBAimnw9u+MoI1i0r+tn9EW+JAEjN0SStQjkKE6Cvaja5BJv5wO53E4OUWTAZ11RXsdlaHSszWyldcrGH+26N7ahkJIDCNMhIaDsdddmCbF5+cdGI/qZHGMkkHrQ4WkYjB/fh+FKCCDTtsXVh21hgHq091UTkuwvCKRC5ZbQGd77AZafNkc8lulAy2LgkBPGvuenXEBEnd9aV9NLRwAtiCQ/2GZTBIu6D6fQxAN3bnQCCREYGy161qSaUgYTVJEdWz+UydGuIMl4Tzu90oMUohwBcWK4ApPSKDFVk0ZBHqdiuIrIRMlk4kbj2uzXGJYKoqcP2QAqTpizw6TuCSjtbpatwgYOjtqcHUuA/SVJQmgyP17Bf7eEGwlIKSWcrTViGEktw4IxmmYt5GxEQJ2eqdgSlT9tgedZ7yRa46qQGKn/Pw5T1CHED2x0DwSRQY/M49F9liFVcXf6EK1nmC3ic+z7Uc97/ncStIsSb4lGVBlZl9q2mqbJSIC+IU7wCZNv68ndEKyPboMfQe5GOJNRFCHHHBmi5CGEfdgsrhVUveJtDixjJMRNg3J4a2vbRtjG1v/K6oWKlw38SJkprR6Brn20I+J1FL4G46maqTSa/EKadkUBj+KkIhPSR2t8fIzEJJcDEGrtgDqQe5/QuecesjPns6NCs3YMlED9BICiwRRLHmuAhIUfCN77LM2fRzNuoZaRYYQms9yNcGdGt427n2rBjvUfGLUyB5kegSt9Ouaj94TdlBbMkonKxFrpFtu8VGqjfjkMg71jQOXWDVorbBVw6UhF0UOtqYdQRscDrZPh2gfmUZL/4BVK5D0JbzupSqPA8Hao12CWQp2Hp4t1IhEhKoG22BYeHzwkRnCOx8KXK2bRag1UkWaX7Wdo3yygiE0QKxtU9O4/5wxXqR+hMNVSjmCmpIsvvKUmyef6HBKXdEHj4Vtz6lpUvpDztcX3M8sIDnyW4muSzAKqZWiCUfgjZMD1aTnOgdr6kfLRKknVL2G1ltIz3RGj9h9pF6tHO5U852e6AeHmTGbQiOjjRlneV4AegYqv5vG0xpnEgLSmC/HaibGyT/3OYBm7oopVjIdIUBawyfcyZBXXt7/LQmJY81nDfKo0B2Tt7BXwL4ZfmfSJe0bhK9m6+7WpKJB5snZY722RZP54o8KMI/3QAhVcCsNPAOoiAdMM04XYAtBQ2avnlOQ99SDVL+2mHKzNlwBvTXno1TlT7bpaNzIo1YLCNRuNWCdlcaD4GgP7CuU2vFjg0YGpLPPeqiEEsjOgJm2h6WnQyKi5n2BCqtH+nYTvNOfdpDKyqL71rGEyDqJ+YcDRPZBo2R7yfWtI3SWsqEoan781hX6SVqqMmHdm10zrN9RTUYDET1FR+gA3jLWD1fS0aTgTqreGiguiW32WD5S+QievGJl5uu39Fcs7z9toJzXDUty6Abmc1+HbSB+DMN5Z6GDfB70iNdQ5BeZFwyJlQB39cKWEqMBppWdZq34WUQnWgExUS+tO3jVPHLahS10tcQ9zZDjVLC6wLaT3Sgc5NgXYec/vGUU0pCGJ8PB5jlxfTtZZawvL/37cuAE8mR208aEKhAol0EzPNxlvRpWxiaZ4T0+77ZOtHJhumPu8lFpHG9cPkxacuepnK66ZOwtffudTeqUGROs7ZN/i869e7kobiQHKST8OJlZqheZnQgudQ8DPHp1umIu/SlZ53PqU+EnJSfMloWCEIgjd4Dd87juhIyLxAHpMq5YI7KzLZHssPwylRhmNdvpkA2AYhkELw6VF0u/LNuYUBkVnpeuLwqX7RZDzMZyAq1gZpvQC0SuLLJu/gzYM6P5Lo+xN8Gx+ifFExIzo43sVB9gf3h97eKyFckgBCyz5tf/uJhHW7jit+TyG7WRHrxD+7fiiRzamqt77fZFwCgh0kP5DKSzNnrxHZNxXZ5L2gshrVlDlDLIPAqi83mP39GJG/Nck1fw5Ok8giXskk3+HtI+9kC9b5qGiNkkFHyYH0c4KBazGPzgUpRJAIeQZN3bahkudSXZfd2efFCbyZk+8j1an6EAP8oBv0zxDX8c+UVFpCqvKuPgU/daj0SGEcGzF2FZ9cLWwNfTnv7X0XMW1X9QXKsoraa3M/4915Rumuo5wEsjROUud93zvuD8mFPSW2Kvpp3ly6tac8zDir8/KTL/5cy/SEyMiAxTyvqko6SK+qKs+7tnl/b9Bf+ZVf+ZVf+ZVf+ZVf+ZVf+ZVf+SvyH+lwWEhI1Nd9AAAAAElFTkSuQmCC;" vertex="1" parent="1">
          <mxGeometry x="850.0000000000001" y="132.5" width="157.14" height="88" as="geometry" />
        </mxCell>
        <mxCell id="8L8VJX9xK1e9dgMS8Qbl-28" value="Output Sink to APIs" style="text;html=1;align=center;verticalAlign=middle;resizable=0;points=[];autosize=1;strokeColor=none;fillColor=none;fontStyle=1;fontSize=14;rotation=270;" vertex="1" parent="1">
          <mxGeometry x="845" y="280" width="150" height="30" as="geometry" />
        </mxCell>
        <mxCell id="8L8VJX9xK1e9dgMS8Qbl-29" value="" style="shape=image;verticalLabelPosition=bottom;labelBackgroundColor=default;verticalAlign=top;aspect=fixed;imageAspect=0;image=data:image/png,iVBORw0KGgoAAAANSUhEUgAAARsAAACyCAMAAABFl5uBAAAAllBMVEX///9BQEI+PT83Njg6OTsyMTM4NzkmJSgxMDIuLS8mJCf7+/vCwsIzMTQpJyosKi3t7e3Ozs7g4OD29vZHRkidnJ3o6OhMS02BgIG2trbW1tZEQ0Xy8vLU1NTc3Ny0tLR6enufn6CRkZJnZ2h1dHVeXV+op6i/vr+KiYqenZ5ramuVlJUgHyJUU1VgX2EYFhoAAAAPDBE26AjwAAAN50lEQVR4nO1daXeqOheWJAxBBnHAoSqOyKnac87//3Nv9g4go7d3rdtaePN8qYW0i2yz5ydhMFBQUFBQUFBQUFBQUFBQUFBQUFBQUFBQUFBQUFBQUFBQUHghRoHjrCafGrq9RFEw+uLn+TmI5qalW9zUkuD5wOHy5HFddy3z7nzPo70Y6zknGoIwru/bV88oMV2mpUP99298xFdhTVPJSFD7OmwcN0lsozTw/s0P+gLcQTSEWpZrSCFRa9kwLPakZIjLfd+C5UNP3/6s34zYEtM05lEQLA9TX86fn8PKqNXUlXIzP6JVGAYnLn7x/sE6dR4gGpatgHEiVwex49Kgg41LivJr5qBiIRwy/9Yn/XYsYT0Yj98nqRj4x8Mmj+Y6XGL+vmCJ3sUwf/ONT/r9gCm6JfsSHn2UBN2mFxwPLZK3K3mwlVg4xuHbnvMVMGGNVK456KnJTYpsb6OoWNW4EKKRt295xhcBvn1W8zfDEy4d7yo+7ziqWN0nJUKA5vo7HvJFAHND4/r1CK0OX4RHNDW3hiFLcYf32VNdqaZZTeH/2AC9YhgxE75qGAFLTo+++gFfiJ2QAB833ZncaRoAs7fGzHIk9I7++trHeyk+wBO3JNUnmTuRj+YcYugJsSVf+GyvxlzIxmue+2Doy1C4wdYghItjiy97stdDE7IxW+69pzmo2VKOABe3+6oH+wF4g3XTfOuU2Rvt1mSKMdvotWxQpxorNgtIJqiGNqfZIvk916lzmy3eQ8inJ4MTxDdEazJJZs+TBvBFfoMPdyBRoFDaewfVYuf6kDX48NmXP+HrkBgi9qsHtyGkWWkJ4s7kCqpizJ/4sD4gptU0HAEmWtOlHRqCL9O82qBA2GL98vWP+DI4YoL0Wr16MoreKfTQWVU1D/OpPhdwxsJokGrHIAI77D5SpYBjD6Jij/e0PaTuB8CwuOVLW7imzZ0o3u/3cRxFzhG0ih3LwxZgxr/vQV8ADHDSb384duLD7oPLiM91KcLVdZK2pKbvSRxkZXbh/snHy577OwDfPjiqVbx4M7lFDVbqVpVBiEEt3z9enRGGxXVL1StEIvwl56PJ6TOhVEREXU+DbKvB+/cJEcX1UJ28blmcc19A/LAsXafVIfB7n2Uzis9Wcb6MYvpEptHFCTbbcRiG4+0qCBxnGU+JlFppefFj9DnyRdcQvNuP1cB03zwnERTINbvJM0+gmkN2v3ZTm+u5gIhuv/ePURET/lgBhCVLjO1Aw6zmROACwmHwaRslb4+/ZRZ9wr3oHoZ7njpmhn2ELE5ZiICYtPEjIC9lWZyIf6ynjBNqHnojndinqUaYuwvIyJdBywqyb7vKE8iAWuVLDRphHnE52W7KvTD7kZE7THIiDPO8FHnAjOb5NASCT8oOS4gKqfyoy+LNZHn35OKhtPt2Z3jyJSfCS9LFwjM9iizwzU/+Fqg6FMtZEN2kjbtxYuIqJP57xxVrK920YV/zibipaxpaD51BTJx4FjuFFHOc6dwQPuRt9MlMMlOYvh10GM4NG5V2UviKwW+DUkGPkzwSynBnWyKdsuzFw6VDKQzMMahUsTc1SbBHTG4d1qvlDb5fq0zLghIEmQ5GZUMc3TLaI7PzcgWaY2+FLb9yL3x8RyNmd7YJHKBo7Gr8AgrhjyHrNPK1cPUK4a+X2+dYh/RrYkNIVPkvv5CLYnZUOOh4Ca8ZBalMYFDzdszF1oqw89onRMQMlk29Fb7BYLKlmfXT8YFV4Hr4EoIg4F7uv9N27wN+ZpGXVjq2IbEIIZ4k2tdN4OsQwITtJlfykWYAPJPAnlZkQ/fZ2DRbqBVSAWOoGDYycH86IOZvjuwcqyIArVrLeayGiywLNrOSsBrURU62V9SNMmRend8ceVoVXq5CWKwQfq0RUNYxuxcChn57bx/aVIVls+I12Ty6LRfITht6Woir8HmNLK+fDWi3GC0F3g0olZVPP2iQTa5DIdysOzsJ4A92kAQIikKOzffg6y7wRbcNssmFAblpq5DhZpvcfjIgcDUbm21DaV/MrHU5tGuysTMjkrr3Kic5vYm5WQsP7CcD8qY6lxgQYYGrcPNY81M5kSJ1782d8DNr8e4/HZhFW03KMM3Ya9nCcaqxH89EMeRVYRWwALn53TM3g/TReZ1OtMEyuVY0R2dWEs0jZkFrAze9OmsHqV5d7XXKplJNrSDLJEjv8zJXtXaLWkXy6GYCloliVaO6ACcfmIl7HaUPhJgNGtPKVw7z9ULMOPP1EdLHBkTm554HCjj0iraalv+JIwvrt86yTkJLlrZKmcPFQqGgA+J5TDfcye4VMbxjvqMDs1KRrEP6UQpjRu/SQnW5uDV6w+VAScHNwERhY0IMOqE/ro+vd9uzp0khXPlIi+2QgBU4osOrKRuidmdXDeIdHQ3h03yF2Fn4ouWl8hzlUAXdlwWfsB2TXl1f05YOnba1b7qCyJbfsa7PcCqwBqSDkkWMJ/ODlNTCwt4iV6rgZKfNLrMHmxvW717acLPPywmGhOleHwj5npQYDjRPwFOlGu81nnp7a969FLMJQXaSANHN05uW8/bQ1PK2ii/Gjtm+Z9BMxvyMbKDTjtaJG+DM/fT7xsm5qV2ZQfLgtWw0hK5nnlbcC/EPsXrGM96cCgwTTbijaDVM59+crO9xg4MYs10mc7vAo/Dv/WMZr+O5l4uHMJ3b08WJtGkV8gjIcTG3ufvgJxHdXvTDztQQxm+l3CCdtHV/3yXX2T4W2M9mh2R3vPulESn047KDBYnPYu3XZwyMAcYMmsFgrMYIxK2ubRWunmCMLIoF8azPEkUJo5Y5v2I1qAcRzRNA118XSdA6iHdvtm+5BmuXikHhcKVdHExkab7nh3UcjJy1JYnp111anuDIn0WkF94PsbPNGyyQvZs9tjYye6zUfkeYcU1H4Xi83a4ExuemXUJwsYtl88+DNzQfAmjdFlpZ2AOnVduCuUb/IpsH1l7TpssDhMc8i3UDjGxqaRb0+3q9JxE6UW491MNysZ3y+bAh49cSCafve6Bhgg1ndUyQfWyCjZbHuDWUOkGsjd2GvgB7tA1B/xYYXoSuZYal+Q255CjnqfcUYDT8pmrWEo3M2/oDtMtqivGw5dByJkEvgJsuG2sSM9ykiVzkloP8QHptZ1n0AdCKa6nXJNn2IdpCMEDOaI+DvyeywXODtCeNSjz+sHs8pE/j6UZmWZaw2mJf3nOdQlvceKZUvm402nK/77b40sqzGp4zrigxGweAn+omYfaT2PAW7l5IcNW4KKAakx2wbUrF+oTmfAp46ViXMJ2ZJ8sTdX8EYWO/i1tw8mW9QrVAiRDgT0S4B4IZNb3asZ6f74eVBq8SGG8IahLT0IFtfMm9qB4fhXTlFjPdDwBdtlwSn+xM1CfrmOrRaI6iMtxSsQY4grW9MD0DIyWu1XDmpXSRgsCkimn8/lAsZIT2/DwK+f1P09A4zOkirFSUuMgOMeHzWIpxcm/ZC9MvQOuJ+MnSiZK5l9FFqsZl8u6nZy5408WveCFz0D6fYIeQm/GY62YnKRB+b6joOJqe96fSYyvcHidTKfalXS+Ev7UUyGNdLw1sYNH2D3G+bVWozLOXmcSU5yN1resEts8h3Nnwlhdu33/9w1oIFq5vua7laf1i3DzDMFhGl82n7EcYXJbO/8eaUVBQUFBQUFBQ6C3C9Xo9Wv+Xndr1atOPpNP57Xm+79ts96+YesGyyr9Jfsstdpe5yblvLnqQRDhZmYHd/sVRLKO/7t/KpQXDw4ESk+AppOzWyZ3PJYBsxMrxxI/b5xVr6NUa30I2M9zkwLRkv/M0UhVe9yBkg/uBIj1v9QbRJVeIkRMtCzW/7eUiTYlXOxxGyuZKZWdz9Xva/dKxo6edOqrpqFSRx13dlAe3BWfTcnVupn3OiPq67t3DwQF4bb5Z4vZJ2SQs7Wz2wNzUZLM3NcotQoD2OPrDmKcLdePYWtn5hHKXsL/ikzBQulXaEC5lsxf/pjcnGAudwkMxHQt1anzT+H67ORLcT7fxd5PBMHLx9YdLX/PjsfPmOoOVEIFxWZasrZRNeBNCsz/iXmyhErJhu0My5xqBNw8cDKkTXLMfYxjempICv8KrnSElZTOI4ZxJQn3WxQPIKgA/xeAsfYbn8E2JtRlMJoM7kWTR4eYSxRQYRyOzsM1h2CqbwepsAgGZmN1/8x3olAfEmRPKwhMq4Zu2TYgnRDVZ3LjFOTLVVrzArZm0ywb27h1hh/it845K2GJtsHWzc8dM2AM1FZjf14Mhoxp3jzsCCrbh5MGcfbJuEJO9pbmd3/Yh/ZTjp2cg8iJhL9Y1ZNn4IJstL76Qti6bHSvt81gwvfMWJ/XhJyYn+0EKr1gQ00WqkQk6NbEL5JrQr8lmSnDpxX8lO2nBOng6WwWpbIaupqObcTUmDM1oAV96ImWzYJggnAmZCxMS7UI84q0QFwfH2EmoZgklSsSNxWYcJHoPtuA5roz9hFbhC6UY07g29wzviC8Z0JODwQnKZnsjxJ/rrvF3DFwL8vbxO/0fZ0pdJjwTbKO3hcfj3GLk1n122+qvJ83IyeNAuhrdPXhVkP8W4jVq+bf92fsDa2Az9anB6A2C5OA3pfpvqWOTPy6FV+Zg1SK8e7r4zScdPhMox2gsaUgTJ5CN2218uMZZ2nlI4tFgvE2zo+B62qVcpPBXMotTAtP4ck32uSy20TWZ9XrbpoKCgoKCgoKCgoKCgoKCgoKCgoKCgoKCgoKCgsKn8T9PjsBhA49r6wAAAABJRU5ErkJggg==;" vertex="1" parent="1">
          <mxGeometry x="880" y="390" width="174.89" height="110" as="geometry" />
        </mxCell>
        <mxCell id="8L8VJX9xK1e9dgMS8Qbl-31" value="" style="endArrow=classic;startArrow=classic;html=1;rounded=0;exitX=0.752;exitY=1.137;exitDx=0;exitDy=0;exitPerimeter=0;entryX=0.5;entryY=0;entryDx=0;entryDy=0;" edge="1" parent="1" source="8L8VJX9xK1e9dgMS8Qbl-26" target="8L8VJX9xK1e9dgMS8Qbl-29">
          <mxGeometry width="50" height="50" relative="1" as="geometry">
            <mxPoint x="1110" y="230" as="sourcePoint" />
            <mxPoint x="1160" y="180" as="targetPoint" />
          </mxGeometry>
        </mxCell>
        <mxCell id="8L8VJX9xK1e9dgMS8Qbl-32" value="Real Time&amp;nbsp; Analysis Over Dashboard" style="text;html=1;align=center;verticalAlign=middle;resizable=0;points=[];autosize=1;strokeColor=none;fillColor=none;fontStyle=1;fontSize=13;" vertex="1" parent="1">
          <mxGeometry x="850" y="520" width="250" height="30" as="geometry" />
        </mxCell>
        <mxCell id="8L8VJX9xK1e9dgMS8Qbl-33" value="Live Dashboard" style="text;html=1;align=center;verticalAlign=middle;resizable=0;points=[];autosize=1;strokeColor=none;fillColor=none;fontStyle=1;fontSize=13;" vertex="1" parent="1">
          <mxGeometry x="965" y="360" width="120" height="30" as="geometry" />
        </mxCell>
      </root>
    </mxGraphModel>
  </diagram>
</mxfile>
